<svg width="300" height="64" viewBox="0 0 300 64" fill="none" xmlns="http://www.w3.org/2000/svg">
<rect width="300" height="64" fill="#2B2B36"/>
<path d="M132.244 6H94.7562C90.4726 6 87 9.4655 87 13.7404V46.0019C87 50.2768 90.4726 53.7423 94.7562 53.7423H132.244C136.527 53.7423 140 50.2768 140 46.0019V13.7404C140 9.4655 136.527 6 132.244 6Z" fill="#2B2B36" stroke="#2B2B36" stroke-width="1.03891"/>
<path d="M100.194 11.881L100.677 55.0405C100.677 55.0405 96.0827 63.9495 89.5535 55.0405C83.0244 46.1314 95.3572 45.7354 95.3572 45.7354L95.1154 16.4345C95.1154 16.4345 96.8081 13.6628 100.194 11.881Z" fill="url(#paint0_linear_49_59)"/>
<path d="M101.363 14.5102L101.465 18.3492C101.465 18.3492 111.353 33.7886 117.163 28.2805C122.974 22.7723 126.949 11.8395 126.949 18.2657C126.949 24.6918 127.153 47.5677 127.153 47.5677C127.153 47.5677 132.414 47.9396 131.567 43.4858C130.854 39.7302 133.066 6.49833 126.542 10.6712C118.702 15.6853 117.19 27.8065 111.047 23.6069C108.667 21.98 101.363 14.5102 101.363 14.5102Z" fill="url(#paint1_linear_49_59)"/>
<path d="M139.136 48.9091C138.795 48.9091 138.491 48.8807 138.224 48.8239C137.957 48.7727 137.773 48.7216 137.67 48.6705L138.182 46.8977C138.67 47.0227 139.102 47.0682 139.477 47.0341C139.852 47 140.185 46.8324 140.474 46.5312C140.77 46.2358 141.04 45.7557 141.284 45.0909L141.659 44.0682L136.818 30.9091H139L142.614 41.3409H142.75L146.364 30.9091H148.545L142.989 45.9091C142.739 46.5852 142.429 47.1449 142.06 47.5881C141.69 48.0369 141.261 48.3693 140.773 48.5852C140.29 48.8011 139.744 48.9091 139.136 48.9091ZM156.05 44.2727C154.868 44.2727 153.831 43.9915 152.939 43.429C152.053 42.8665 151.359 42.0795 150.859 41.0682C150.365 40.0568 150.118 38.875 150.118 37.5227C150.118 36.1591 150.365 34.9687 150.859 33.9517C151.359 32.9347 152.053 32.1449 152.939 31.5824C153.831 31.0199 154.868 30.7386 156.05 30.7386C157.232 30.7386 158.266 31.0199 159.152 31.5824C160.044 32.1449 160.737 32.9347 161.232 33.9517C161.732 34.9687 161.982 36.1591 161.982 37.5227C161.982 38.875 161.732 40.0568 161.232 41.0682C160.737 42.0795 160.044 42.8665 159.152 43.429C158.266 43.9915 157.232 44.2727 156.05 44.2727ZM156.05 42.4659C156.947 42.4659 157.686 42.2358 158.266 41.7756C158.845 41.3153 159.274 40.7102 159.553 39.9602C159.831 39.2102 159.97 38.3977 159.97 37.5227C159.97 36.6477 159.831 35.8324 159.553 35.0767C159.274 34.321 158.845 33.7102 158.266 33.2443C157.686 32.7784 156.947 32.5455 156.05 32.5455C155.152 32.5455 154.413 32.7784 153.834 33.2443C153.254 33.7102 152.825 34.321 152.547 35.0767C152.268 35.8324 152.129 36.6477 152.129 37.5227C152.129 38.3977 152.268 39.2102 152.547 39.9602C152.825 40.7102 153.254 41.3153 153.834 41.7756C154.413 42.2358 155.152 42.4659 156.05 42.4659ZM173.302 38.6477V30.9091H175.313V44H173.302V41.7841H173.165C172.859 42.4489 172.381 43.0142 171.734 43.4801C171.086 43.9403 170.268 44.1705 169.279 44.1705C168.461 44.1705 167.734 43.9915 167.097 43.6335C166.461 43.2699 165.961 42.7244 165.597 41.9972C165.234 41.2642 165.052 40.3409 165.052 39.2273V30.9091H167.063V39.0909C167.063 40.0455 167.33 40.8068 167.864 41.375C168.404 41.9432 169.092 42.2273 169.927 42.2273C170.427 42.2273 170.935 42.0994 171.452 41.8438C171.975 41.5881 172.413 41.196 172.765 40.6676C173.123 40.1392 173.302 39.4659 173.302 38.6477ZM188.815 30.9091C188.713 30.0455 188.298 29.375 187.571 28.8977C186.844 28.4205 185.952 28.1818 184.895 28.1818C184.122 28.1818 183.446 28.3068 182.866 28.5568C182.293 28.8068 181.844 29.1506 181.52 29.5881C181.202 30.0256 181.043 30.5227 181.043 31.0795C181.043 31.5455 181.153 31.946 181.375 32.2812C181.602 32.6108 181.892 32.8864 182.244 33.108C182.597 33.3239 182.966 33.5028 183.352 33.6449C183.739 33.7812 184.094 33.892 184.418 33.9773L186.19 34.4545C186.645 34.5739 187.151 34.7386 187.707 34.9489C188.27 35.1591 188.807 35.446 189.318 35.8097C189.835 36.1676 190.261 36.6278 190.597 37.1903C190.932 37.7528 191.099 38.4432 191.099 39.2614C191.099 40.2045 190.852 41.0568 190.358 41.8182C189.869 42.5795 189.153 43.1847 188.21 43.6335C187.273 44.0824 186.134 44.3068 184.793 44.3068C183.543 44.3068 182.46 44.1051 181.545 43.7017C180.636 43.2983 179.92 42.7358 179.398 42.0142C178.881 41.2926 178.588 40.4545 178.52 39.5H180.702C180.759 40.1591 180.98 40.7045 181.366 41.1364C181.759 41.5625 182.253 41.8807 182.849 42.0909C183.452 42.2955 184.099 42.3977 184.793 42.3977C185.599 42.3977 186.324 42.267 186.966 42.0057C187.608 41.7386 188.116 41.3693 188.491 40.8977C188.866 40.4205 189.054 39.8636 189.054 39.2273C189.054 38.6477 188.892 38.1761 188.568 37.8125C188.244 37.4489 187.818 37.1534 187.29 36.9261C186.761 36.6989 186.19 36.5 185.577 36.3295L183.429 35.7159C182.065 35.3239 180.986 34.7642 180.19 34.0369C179.395 33.3097 178.997 32.358 178.997 31.1818C178.997 30.2045 179.261 29.3523 179.79 28.625C180.324 27.892 181.04 27.3239 181.938 26.9205C182.841 26.5114 183.849 26.3068 184.963 26.3068C186.088 26.3068 187.088 26.5085 187.963 26.9119C188.838 27.3097 189.531 27.8551 190.043 28.5483C190.56 29.2415 190.832 30.0284 190.861 30.9091H188.815ZM194.302 44V30.9091H196.313V44H194.302ZM195.325 28.7273C194.933 28.7273 194.594 28.5938 194.31 28.3267C194.032 28.0597 193.893 27.7386 193.893 27.3636C193.893 26.9886 194.032 26.6676 194.31 26.4006C194.594 26.1335 194.933 26 195.325 26C195.717 26 196.052 26.1335 196.33 26.4006C196.614 26.6676 196.756 26.9886 196.756 27.3636C196.756 27.7386 196.614 28.0597 196.33 28.3267C196.052 28.5938 195.717 28.7273 195.325 28.7273ZM201.872 39.2273L201.838 36.7386H202.247L207.974 30.9091H210.463L204.361 37.0795H204.19L201.872 39.2273ZM199.997 44V26.5455H202.009V44H199.997ZM208.315 44L203.202 37.5227L204.634 36.125L210.872 44H208.315Z" fill="white"/>
<defs>
<linearGradient id="paint0_linear_49_59" x1="99.71" y1="11.98" x2="96.7868" y2="58.496" gradientUnits="userSpaceOnUse">
<stop stop-color="#C62B36"/>
<stop offset="1" stop-color="#007592"/>
</linearGradient>
<linearGradient id="paint1_linear_49_59" x1="117.877" y1="7.91709" x2="118.355" y2="41.47" gradientUnits="userSpaceOnUse">
<stop stop-color="#C62B36"/>
<stop offset="1" stop-color="#007592"/>
</linearGradient>
</defs>
</svg>
